<svg width="126" height="31" viewBox="0 0 126 31" fill="none" xmlns="http://www.w3.org/2000/svg">
<g id="Logo" clip-path="url(#clip0_0_4982)">
<path id="Path 2" d="M94.4546 20.1593C94.4353 20.1755 94.4128 20.1874 94.3883 20.1943C94.3639 20.2011 94.3383 20.2026 94.3132 20.1988C94.1979 20.1807 94.0904 20.1304 94.0036 20.0538C93.8369 19.9318 93.6615 19.8217 93.4787 19.7243C93.2188 19.5887 92.9461 19.4784 92.6643 19.3948C92.2766 19.2886 91.8755 19.2376 91.473 19.2432C90.8802 19.2345 90.2924 19.3514 89.75 19.5859C89.257 19.805 88.8253 20.1373 88.4914 20.5547C88.1308 21.0074 87.8633 21.5244 87.704 22.077C87.3439 23.4117 87.3439 24.815 87.704 26.1497C87.8635 26.6982 88.131 27.2108 88.4914 27.6588C88.8196 28.0601 89.2391 28.3805 89.7164 28.5946C90.2206 28.8132 90.7668 28.9233 91.3182 28.9175C92.1156 28.9381 92.9018 28.7296 93.5796 28.3178C93.7805 28.1989 93.9697 28.0621 94.145 27.9093C94.2291 27.8115 94.346 27.7461 94.4748 27.7247C94.519 27.7214 94.5633 27.7293 94.6034 27.7478C94.6435 27.7663 94.6781 27.7947 94.7036 27.8302L94.993 28.186C94.8037 28.4263 94.5765 28.6354 94.32 28.8055C94.046 29.0076 93.7476 29.1758 93.4315 29.3064C93.085 29.4518 92.7241 29.5622 92.3547 29.6359C91.9562 29.7159 91.55 29.7534 91.1432 29.7479C90.4698 29.7602 89.8017 29.6299 89.1847 29.3657C88.5997 29.1152 88.0798 28.7391 87.6636 28.2651C87.2181 27.7411 86.882 27.1365 86.6742 26.4858C86.2097 24.9548 86.2097 23.3246 86.6742 21.7936C86.876 21.1364 87.2126 20.5264 87.6636 20.0011C88.095 19.4968 88.6383 19.0956 89.252 18.8281C89.932 18.5428 90.6659 18.4013 91.4057 18.4129C92.0734 18.4029 92.7366 18.5216 93.3575 18.7621C93.9063 18.9781 94.4086 19.2934 94.8382 19.6914L94.5555 20.067L94.4478 20.1593H94.4546ZM104.597 29.6029C104.5 29.6143 104.403 29.5884 104.325 29.5306C104.247 29.4728 104.195 29.3877 104.18 29.2932L104.025 27.8895C103.729 28.1729 103.419 28.4365 103.103 28.6869C102.806 28.9178 102.486 29.1187 102.147 29.2866C101.808 29.4524 101.448 29.5764 101.077 29.6556C100.664 29.7436 100.242 29.7856 99.8187 29.7809C99.4398 29.783 99.0629 29.7274 98.7015 29.6161C98.3496 29.5108 98.0225 29.3384 97.739 29.1087C97.4521 28.8654 97.2225 28.5641 97.066 28.2256C96.8893 27.8198 96.8043 27.3814 96.8169 26.9405C96.8066 26.4705 96.9479 26.0093 97.2208 25.6225C97.5476 25.1778 97.9825 24.8199 98.4861 24.5812C99.1893 24.2462 99.9369 24.0088 100.707 23.8761C101.784 23.6807 102.876 23.5771 103.971 23.5664V22.4329C104.025 21.5967 103.788 20.7673 103.298 20.0802C103.052 19.797 102.74 19.5749 102.389 19.4318C102.039 19.2886 101.658 19.2285 101.279 19.2564C100.821 19.2527 100.365 19.3285 99.9331 19.4805C99.5946 19.6072 99.2718 19.7708 98.9707 19.9681C98.7356 20.1161 98.5108 20.279 98.2976 20.4558C98.19 20.5753 98.0417 20.6526 97.8803 20.6733C97.8108 20.6753 97.7421 20.6578 97.6825 20.6227C97.6228 20.5877 97.5747 20.5366 97.5438 20.4756L97.3554 20.1593C97.886 19.6141 98.513 19.1675 99.2062 18.8412C99.894 18.5325 100.644 18.3794 101.4 18.3931C101.942 18.3842 102.479 18.4805 102.982 18.6765C103.417 18.8519 103.801 19.1304 104.099 19.4871C104.415 19.8586 104.644 20.2925 104.772 20.759C104.933 21.3005 105.01 21.8625 105.001 22.4263V29.6095L104.597 29.6029ZM103.978 24.2913C103.054 24.3105 102.132 24.3898 101.219 24.5285C100.564 24.6265 99.9241 24.8036 99.3139 25.0557C98.8829 25.2257 98.5014 25.4974 98.2034 25.8465C97.9725 26.1488 97.8495 26.517 97.8534 26.8944C97.8425 27.222 97.9045 27.5481 98.0351 27.8499C98.1493 28.1013 98.3168 28.3259 98.5265 28.509C98.7325 28.6864 98.9762 28.8169 99.2399 28.8912C99.5127 28.9724 99.7961 29.0145 100.081 29.0164C100.487 29.0163 100.891 28.9699 101.286 28.878C101.636 28.7858 101.975 28.6554 102.295 28.4892C102.609 28.3245 102.903 28.1255 103.17 27.8961C103.44 27.6654 103.709 27.4216 103.971 27.1514V24.2913H103.978ZM114.7 19.5464C114.698 19.573 114.691 19.5989 114.679 19.6228C114.666 19.6466 114.649 19.6677 114.629 19.685C114.608 19.7022 114.584 19.7152 114.558 19.7231C114.532 19.7309 114.505 19.7336 114.478 19.7309V19.7309C114.411 19.7279 114.345 19.7146 114.282 19.6914C114.181 19.6526 114.078 19.6196 113.973 19.5925C113.823 19.5473 113.67 19.5121 113.515 19.4871C113.31 19.4573 113.103 19.444 112.896 19.4475C112.512 19.4344 112.13 19.4958 111.771 19.6281C111.411 19.7604 111.082 19.9611 110.803 20.2186C110.181 20.8493 109.72 21.6147 109.457 22.4526V29.6095H108.387V18.5974H108.999C109.097 18.5878 109.195 18.6136 109.275 18.6699C109.308 18.7055 109.333 18.7472 109.349 18.7924C109.365 18.8377 109.372 18.8856 109.369 18.9335L109.463 21.2598C109.75 20.4497 110.235 19.7209 110.877 19.1378C111.496 18.6243 112.287 18.3542 113.098 18.3799C113.413 18.3751 113.727 18.4106 114.033 18.4854C114.317 18.5529 114.59 18.6547 114.848 18.7885L114.706 19.52L114.7 19.5464ZM125.926 23.5795C125.896 23.609 125.86 23.6319 125.821 23.6466C125.782 23.6614 125.739 23.6677 125.697 23.6652H117.621V23.8761C117.611 24.6134 117.711 25.3481 117.917 26.0574C118.085 26.6315 118.369 27.167 118.751 27.6325C119.103 28.0483 119.55 28.3759 120.057 28.588C120.601 28.8094 121.185 28.9193 121.773 28.911C122.269 28.9191 122.763 28.857 123.241 28.7264C123.602 28.6253 123.951 28.4884 124.284 28.3178C124.518 28.1982 124.743 28.0616 124.957 27.9093C125.056 27.8184 125.18 27.7568 125.313 27.7313C125.358 27.728 125.402 27.7359 125.442 27.7544C125.482 27.7729 125.517 27.8013 125.542 27.8368L125.838 28.1926C125.633 28.4349 125.39 28.6439 125.118 28.8121C124.806 29.0093 124.475 29.1749 124.129 29.3064C123.748 29.4452 123.356 29.5553 122.958 29.6359C122.543 29.7145 122.122 29.7542 121.699 29.7545C120.979 29.7615 120.265 29.627 119.599 29.3591C118.975 29.1029 118.418 28.7107 117.971 28.2124C117.489 27.6825 117.125 27.061 116.9 26.3869C116.64 25.5794 116.515 24.7359 116.53 23.8893C116.519 23.1463 116.635 22.4068 116.874 21.7013C117.083 21.0673 117.42 20.4804 117.863 19.9747C118.303 19.489 118.844 19.1023 119.451 18.8412C120.128 18.5619 120.857 18.4228 121.592 18.4326C122.191 18.4269 122.785 18.5366 123.341 18.7556C123.872 18.9641 124.35 19.2834 124.741 19.6914C125.153 20.126 125.467 20.64 125.663 21.2005C125.899 21.8611 126.013 22.5572 126 23.2566C126.01 23.3713 125.984 23.4862 125.926 23.5861V23.5795ZM124.782 21.4048C124.643 20.9665 124.414 20.5606 124.109 20.212C123.81 19.8862 123.44 19.6315 123.025 19.4673C122.584 19.2877 122.11 19.198 121.632 19.2037C121.101 19.192 120.573 19.2815 120.077 19.4673C119.631 19.6368 119.228 19.8974 118.893 20.2317C118.549 20.5774 118.273 20.9817 118.078 21.4246C117.864 21.9226 117.726 22.4489 117.668 22.9864H125.071C125.076 22.4473 124.992 21.911 124.822 21.3982L124.782 21.4048Z" fill="#ED2729"/>
<path id="Path 3" d="M38.2556 27.1909C38.2554 27.4568 38.2962 27.7212 38.3767 27.9751C38.4454 28.1746 38.558 28.3568 38.7065 28.5089C38.8419 28.6469 39.0077 28.7528 39.1911 28.8186C39.3853 28.8871 39.5905 28.9206 39.7969 28.9175C40.0263 28.9204 40.2544 28.8825 40.4699 28.8055C40.6477 28.7344 40.8188 28.6484 40.9814 28.5485C41.1024 28.4686 41.2192 28.3829 41.3314 28.2914C41.3858 28.2318 41.4594 28.1923 41.54 28.1794C41.5772 28.1826 41.6131 28.1945 41.6447 28.214C41.6763 28.2334 41.7027 28.26 41.7218 28.2914L42.0179 28.7527C41.7126 29.0739 41.3409 29.3278 40.9276 29.4974C40.5031 29.6803 40.0452 29.7767 39.5815 29.7808C39.2591 29.7993 38.9361 29.754 38.632 29.6476C38.3279 29.5412 38.0488 29.3758 37.8114 29.1613C37.3535 28.63 37.1286 27.9431 37.1855 27.2502V19.7243H35.5702C35.4969 19.7269 35.4252 19.7035 35.3682 19.6584C35.3405 19.6349 35.3188 19.6053 35.3048 19.5722C35.2907 19.539 35.2848 19.5031 35.2875 19.4672V19.0587L37.2057 18.9269L37.4749 14.9728C37.4805 14.9082 37.509 14.8475 37.5556 14.8014C37.58 14.7747 37.6102 14.7537 37.644 14.74C37.6778 14.7263 37.7143 14.7202 37.7508 14.7223H38.2556V18.94H41.7823V19.7243H38.2556V27.1975V27.1909ZM51.7164 29.6029C51.62 29.6111 51.524 29.5839 51.4469 29.5267C51.3698 29.4694 51.3171 29.3862 51.2991 29.2931L51.1443 27.8894C50.853 28.1725 50.5451 28.4387 50.2223 28.6868C49.9275 28.9177 49.6095 29.1186 49.2733 29.2866C48.9331 29.4513 48.5737 29.5752 48.2031 29.6556C47.7874 29.7432 47.363 29.7852 46.9378 29.7808C46.559 29.782 46.1822 29.7264 45.8206 29.6161C45.4707 29.5108 45.1458 29.3383 44.8649 29.1086C44.5758 28.8673 44.3458 28.5655 44.1918 28.2255C44.0099 27.8212 43.9225 27.3821 43.9361 26.9405C43.9323 26.4714 44.073 26.012 44.3399 25.6224C44.6667 25.1778 45.1016 24.8199 45.6052 24.5812C46.3084 24.2461 47.056 24.0088 47.8262 23.876C48.9126 23.6861 50.0138 23.5891 51.1174 23.5861V22.4328C51.1746 21.5963 50.937 20.7659 50.4444 20.0801C50.1984 19.7962 49.8871 19.5734 49.5361 19.4302C49.1851 19.287 48.8044 19.2274 48.4252 19.2564C47.9665 19.2516 47.5106 19.3275 47.0792 19.4804C46.7379 19.6057 46.4127 19.7694 46.11 19.9681C45.8736 20.1141 45.6486 20.2771 45.4369 20.4558C45.3293 20.5753 45.181 20.6525 45.0197 20.6732C44.95 20.6761 44.8809 20.6589 44.8211 20.6238C44.7613 20.5886 44.7133 20.5371 44.6831 20.4755L44.488 20.1592C45.0185 19.614 45.6456 19.1675 46.3388 18.8412C47.0289 18.5324 47.781 18.3792 48.5397 18.3931C49.0787 18.3836 49.6142 18.48 50.1146 18.6764C50.5508 18.8535 50.9365 19.1317 51.2386 19.487C51.5488 19.8618 51.7778 20.2946 51.9116 20.7589C52.0736 21.3027 52.1552 21.8664 52.1539 22.4328V29.6095L51.7164 29.6029ZM51.1174 24.2912C50.1933 24.3111 49.2715 24.3903 48.3579 24.5285C47.7036 24.6282 47.0641 24.8053 46.4532 25.0557C46.0242 25.2259 45.645 25.4976 45.3494 25.8465C45.1166 26.1481 44.9913 26.5162 44.9927 26.8943C44.9842 27.2225 45.0485 27.5485 45.1812 27.8499C45.2931 28.1025 45.4609 28.3276 45.6725 28.5089C45.8654 28.6833 46.0952 28.8138 46.3456 28.8911C46.6199 28.9755 46.906 29.0177 47.1936 29.0164C47.6081 29.0214 48.0217 28.9772 48.4252 28.8846C49.1229 28.7052 49.7681 28.369 50.3098 27.9026C50.579 27.672 50.8482 27.4281 51.1107 27.1579V24.2912H51.1174ZM58.7228 23.4147C58.6562 23.4768 58.5815 23.53 58.5007 23.5729C58.6123 23.6272 58.7145 23.6983 58.8035 23.7838L59.0593 24.0474L64.2619 29.6029H63.3264C63.2289 29.6034 63.1324 29.5832 63.0437 29.5436C62.9494 29.4926 62.8651 29.4257 62.7947 29.3459L58.0834 24.3901C57.9857 24.2787 57.8668 24.1869 57.7334 24.1199C57.574 24.0633 57.4047 24.0386 57.2354 24.0474H56.7306V29.6029H55.6604V13.5032H56.7306V23.3225H57.2488C57.3492 23.3205 57.4489 23.305 57.545 23.2763C57.6591 23.2385 57.7628 23.1754 57.8478 23.0918L62.3572 18.8741C62.4315 18.7957 62.5178 18.729 62.613 18.6764C62.7122 18.618 62.8272 18.5904 62.9427 18.5973H63.9052L58.9516 23.2104L58.743 23.4147H58.7228ZM74.5258 23.5729C74.4976 23.6047 74.4622 23.6295 74.4225 23.6456C74.3828 23.6616 74.3398 23.6683 74.2969 23.6652H66.2205V23.876C66.2088 24.6109 66.3063 25.3434 66.5099 26.0508C66.6769 26.6275 66.9607 27.1654 67.3444 27.6324C67.7077 28.0528 68.1695 28.3807 68.6905 28.588C69.2324 28.8069 69.8138 28.9167 70.4 28.9109C70.8956 28.9191 71.3898 28.8569 71.8673 28.7264C72.2291 28.6275 72.5788 28.4905 72.9105 28.3178C73.1434 28.1957 73.3682 28.0592 73.5835 27.9092C73.685 27.8161 73.8107 27.7522 73.947 27.7247C73.9906 27.7238 74.0337 27.7336 74.0725 27.7532C74.1113 27.7727 74.1445 27.8014 74.1691 27.8367L74.4652 28.1926C74.2578 28.4329 74.0151 28.6416 73.7451 28.8121C73.4353 29.011 73.1034 29.1746 72.7557 29.2997C72.3765 29.4446 71.9845 29.5549 71.5846 29.6292C71.1706 29.7136 70.7488 29.7556 70.326 29.7544C69.6061 29.7614 68.892 29.627 68.2261 29.359C67.6037 29.0987 67.0476 28.7072 66.5974 28.2124C66.1093 27.6828 65.7361 27.0618 65.5003 26.3869C65.2398 25.5817 65.1148 24.7403 65.1301 23.8958C65.1223 23.1531 65.2383 22.4141 65.4734 21.7079C65.6815 21.0732 66.018 20.486 66.4627 19.9813C66.9005 19.4935 67.4429 19.1065 68.0511 18.8478C68.7271 18.5653 69.4565 18.426 70.1914 18.4392C70.7902 18.4317 71.3847 18.5391 71.9413 18.7555C72.4652 18.9599 72.9381 19.2723 73.3278 19.6715C73.7369 20.1079 74.0506 20.6214 74.2498 21.1807C74.4835 21.8437 74.5951 22.5421 74.5796 23.2434C74.5913 23.3573 74.5679 23.4721 74.5123 23.5729H74.5258ZM73.3816 21.3982C73.2423 20.9619 73.0133 20.5582 72.7086 20.2119C72.4098 19.8877 72.0422 19.6313 71.6317 19.4607C71.1871 19.2842 70.7115 19.1946 70.2318 19.1971C69.7037 19.1918 69.1791 19.2812 68.6838 19.4607C68.2367 19.6316 67.831 19.892 67.4925 20.2251C67.1507 20.5733 66.877 20.9798 66.6848 21.4245C66.4713 21.9206 66.333 22.4445 66.2743 22.9798H73.6777C73.6856 22.4405 73.6015 21.9037 73.4287 21.3916L73.3816 21.3982ZM78.9073 22.7689C79.2242 22.9397 79.5579 23.0788 79.9034 23.1841L81.0475 23.54C81.4446 23.6586 81.8215 23.7904 82.1917 23.9354C82.5485 24.0721 82.8856 24.2538 83.1945 24.4757C83.4739 24.6867 83.7035 24.9542 83.8676 25.26C84.0575 25.6057 84.1504 25.9946 84.1368 26.3869C84.1426 26.8392 84.0533 27.2879 83.8743 27.7049C83.7003 28.1128 83.4386 28.4792 83.107 28.7791C82.7469 29.0964 82.3259 29.3406 81.8687 29.4974C81.3355 29.6835 80.7721 29.7728 80.2062 29.761C79.5143 29.7775 78.8264 29.6518 78.1871 29.392C77.6416 29.1539 77.1374 28.8337 76.693 28.443L76.9555 28.0674C76.9825 28.0132 77.0244 27.9676 77.0766 27.9356C77.1341 27.904 77.1992 27.8881 77.2651 27.8894C77.402 27.9107 77.529 27.9728 77.6285 28.0674C77.8032 28.2102 77.9901 28.3381 78.1871 28.4496C78.4575 28.6062 78.744 28.7343 79.0419 28.8318C79.4535 28.9572 79.8829 29.0173 80.3139 29.0098C80.7392 29.0156 81.1625 28.9509 81.5658 28.8186C81.8978 28.7003 82.2038 28.5214 82.4677 28.2914C82.7037 28.0705 82.8894 27.8032 83.0128 27.5072C83.1392 27.2085 83.2032 26.8881 83.2013 26.5648C83.215 26.237 83.1206 25.9135 82.9321 25.6422C82.7393 25.3908 82.4966 25.18 82.2186 25.0227C81.904 24.8439 81.5699 24.7003 81.2225 24.5944L80.0582 24.2385C79.6611 24.1199 79.2774 23.9881 78.9073 23.8497C78.5524 23.7189 78.2173 23.5416 77.9112 23.3225C77.6208 23.1119 77.3779 22.845 77.1977 22.5383C77.0085 22.1875 76.9158 21.7946 76.9285 21.3982C76.9274 21.0058 77.0172 20.6182 77.191 20.2647C77.366 19.9003 77.6184 19.5768 77.9314 19.3157C78.2736 19.0261 78.6686 18.8025 79.0957 18.6567C79.5932 18.4872 80.1171 18.4047 80.6437 18.4128C81.2646 18.4001 81.8827 18.4984 82.4677 18.7028C83.0085 18.9074 83.5043 19.2116 83.9282 19.599L83.6926 19.9615C83.6715 20.0089 83.6366 20.0491 83.5923 20.0772C83.5481 20.1053 83.4963 20.1201 83.4436 20.1197C83.3252 20.1025 83.2137 20.0547 83.1205 19.9813C82.9548 19.8671 82.7817 19.7636 82.6023 19.6715C82.3508 19.5415 82.0871 19.4355 81.8148 19.3552C81.4419 19.257 81.0568 19.2104 80.6706 19.2168C80.293 19.2159 79.9178 19.276 79.5601 19.3948C79.2462 19.4917 78.9539 19.646 78.6986 19.8495C78.4708 20.0301 78.283 20.2543 78.1467 20.5085C78.0184 20.7579 77.9515 21.0332 77.9516 21.3125C77.9363 21.6201 78.0316 21.9232 78.2208 22.1692C78.4037 22.406 78.6324 22.6053 78.8938 22.7557L78.9073 22.7689Z" fill="#8C8281"/>
<path id="Path 4" fill-rule="evenodd" clip-rule="evenodd" d="M20.4671 30.341C20.6219 29.3393 20.9181 27.5006 21.2613 25.9651C21.4517 25.1678 21.6968 24.384 21.995 23.619C22.8107 23.6112 23.5899 23.2863 24.161 22.716C24.7321 22.1456 25.0485 21.3764 25.0405 20.5777C25.0324 19.7789 24.7007 19.016 24.1182 18.4568C23.5357 17.8975 22.7501 17.5878 21.9344 17.5956H21.7998V17.6747C21.8002 18.5448 21.5472 19.397 21.0703 20.1313C20.5934 20.8655 19.9126 21.4513 19.1076 21.8199C19.2942 22.233 19.572 22.6004 19.9212 22.8956C20.2704 23.1907 20.6821 23.4063 21.1267 23.5268C20.9248 24.4494 20.6623 25.7015 20.5075 26.6637C20.2383 28.3639 20.0633 29.8731 19.996 30.4596C19.2238 30.6699 18.4363 30.8219 17.6404 30.9143C17.2017 29.0526 16.8959 27.1633 16.725 25.26C16.6556 24.0342 16.6781 22.8052 16.7923 21.5827H17.1087C18.1391 21.5879 19.1344 21.216 19.8994 20.5399C20.6643 19.8638 21.1436 18.9323 21.2433 17.928C21.3431 16.9237 21.056 15.9192 20.4384 15.1115C19.8209 14.3037 18.9174 13.751 17.9052 13.5618C16.893 13.3726 15.8451 13.5605 14.9671 14.0887C14.0891 14.6169 13.4442 15.4472 13.1591 16.4168C12.874 17.3864 12.9691 18.4254 13.4259 19.3298C13.8826 20.2343 14.668 20.9391 15.628 21.3059C15.7761 22.7294 16.0251 24.9107 16.2001 26.1035C16.5299 28.2585 17.0144 30.2092 17.2029 30.9275C16.7452 30.967 16.2808 30.9868 15.803 30.9868C11.8107 30.9644 7.97462 29.4651 5.06389 26.7895C2.15315 24.114 0.382921 20.46 0.108112 16.5601C-0.166697 12.6602 1.07423 8.8028 3.5821 5.76118C6.08997 2.71956 9.67939 0.718611 13.6307 0.159514C17.582 -0.399584 21.6031 0.524498 24.8878 2.74649C28.1725 4.96848 30.478 8.32412 31.342 12.1406C32.206 15.9571 31.5647 19.9524 29.5466 23.3253C27.5285 26.6983 24.2829 29.1996 20.4604 30.3278L20.4671 30.341Z" fill="#ED2729"/>
</g>
<defs>
<clipPath id="clip0_0_4982">
<rect width="126" height="31" fill="white"/>
</clipPath>
</defs>
</svg>
