<svg width="191" height="48" viewBox="0 0 191 48" fill="none" xmlns="http://www.w3.org/2000/svg">
<g id="vector">
<path id="Path 2" d="M143.181 31.2144C143.152 31.2395 143.118 31.258 143.081 31.2686C143.044 31.2792 143.005 31.2816 142.967 31.2756C142.792 31.2476 142.629 31.1696 142.497 31.0511C142.245 30.8622 141.979 30.6916 141.702 30.5409C141.308 30.331 140.894 30.1601 140.467 30.0307C139.88 29.8663 139.271 29.7873 138.661 29.796C137.763 29.7825 136.872 29.9635 136.05 30.3266C135.302 30.6658 134.648 31.1804 134.142 31.8266C133.595 32.5276 133.19 33.3282 132.948 34.1838C132.402 36.2504 132.402 38.4233 132.948 40.4899C133.19 41.3392 133.595 42.133 134.142 42.8266C134.639 43.4479 135.275 43.9441 135.999 44.2756C136.763 44.614 137.591 44.7845 138.427 44.7756C139.636 44.8075 140.827 44.4847 141.855 43.847C142.159 43.6629 142.446 43.4511 142.712 43.2144C142.839 43.063 143.016 42.9617 143.212 42.9287C143.279 42.9235 143.346 42.9358 143.407 42.9644C143.468 42.993 143.52 43.037 143.559 43.0919L143.997 43.6429C143.71 44.0149 143.366 44.3387 142.977 44.6021C142.562 44.915 142.109 45.1755 141.63 45.3776C141.105 45.6028 140.558 45.7737 139.998 45.8878C139.394 46.0117 138.778 46.0699 138.161 46.0613C137.141 46.0804 136.128 45.8785 135.193 45.4695C134.306 45.0817 133.518 44.4993 132.887 43.7654C132.212 42.954 131.702 42.0179 131.387 41.0103C130.683 38.6397 130.683 36.1156 131.387 33.745C131.693 32.7274 132.203 31.7829 132.887 30.9695C133.541 30.1887 134.364 29.5675 135.295 29.1532C136.325 28.7115 137.438 28.4924 138.559 28.5103C139.571 28.4949 140.577 28.6787 141.518 29.0511C142.35 29.3855 143.111 29.8736 143.763 30.4899L143.334 31.0715L143.171 31.2144H143.181ZM158.556 45.8368C158.409 45.8545 158.261 45.8143 158.143 45.7248C158.025 45.6354 157.946 45.5036 157.924 45.3572L157.689 43.1838C157.24 43.6225 156.771 44.0307 156.291 44.4185C155.841 44.776 155.355 45.0871 154.842 45.347C154.327 45.6038 153.783 45.7957 153.22 45.9185C152.594 46.0546 151.954 46.1197 151.312 46.1123C150.738 46.1156 150.167 46.0296 149.619 45.8572C149.085 45.6942 148.59 45.4272 148.16 45.0715C147.725 44.6949 147.377 44.2284 147.14 43.7042C146.872 43.0759 146.743 42.3971 146.762 41.7144C146.746 40.9866 146.961 40.2725 147.374 39.6736C147.87 38.985 148.529 38.4309 149.292 38.0613C150.358 37.5425 151.492 37.175 152.659 36.9695C154.292 36.6669 155.947 36.5065 157.607 36.4899V34.7348C157.689 33.44 157.329 32.1558 156.587 31.0919C156.213 30.6535 155.741 30.3096 155.209 30.0879C154.677 29.8663 154.101 29.7733 153.526 29.8164C152.831 29.8106 152.14 29.9281 151.486 30.1634C150.973 30.3596 150.483 30.6128 150.027 30.9185C149.671 31.1475 149.33 31.3997 149.007 31.6736C148.843 31.8586 148.619 31.9782 148.374 32.0103C148.269 32.0134 148.165 31.9863 148.074 31.932C147.984 31.8778 147.911 31.7987 147.864 31.7042L147.578 31.2144C148.383 30.3702 149.333 29.6788 150.384 29.1736C151.427 28.6956 152.563 28.4584 153.71 28.4797C154.53 28.4659 155.345 28.6151 156.108 28.9185C156.767 29.19 157.349 29.6213 157.801 30.1736C158.279 30.7489 158.627 31.4207 158.821 32.1429C159.064 32.9815 159.181 33.8516 159.168 34.7246V45.847L158.556 45.8368ZM157.618 37.6123C156.217 37.6422 154.819 37.7649 153.435 37.9797C152.442 38.1314 151.472 38.4056 150.547 38.796C149.894 39.0592 149.316 39.4798 148.864 40.0205C148.514 40.4885 148.327 41.0586 148.333 41.643C148.317 42.1503 148.411 42.6552 148.609 43.1225C148.782 43.5117 149.036 43.8595 149.354 44.143C149.666 44.4177 150.035 44.6198 150.435 44.7348C150.849 44.8605 151.278 44.9258 151.71 44.9287C152.325 44.9285 152.938 44.8566 153.537 44.7144C154.068 44.5716 154.581 44.3697 155.067 44.1123C155.542 43.8573 155.987 43.5492 156.393 43.194C156.801 42.8368 157.209 42.4593 157.607 42.0409V37.6123H157.618ZM173.87 30.2654C173.867 30.3066 173.857 30.3468 173.838 30.3837C173.82 30.4206 173.794 30.4533 173.763 30.48C173.731 30.5067 173.695 30.5267 173.655 30.539C173.616 30.5512 173.574 30.5553 173.533 30.5511V30.5511C173.432 30.5465 173.332 30.5258 173.237 30.4899C173.084 30.4298 172.927 30.3787 172.768 30.3368C172.541 30.2668 172.309 30.2123 172.074 30.1736C171.764 30.1274 171.45 30.107 171.136 30.1123C170.554 30.092 169.975 30.187 169.43 30.392C168.885 30.5969 168.387 30.9076 167.963 31.3062C167.02 32.2828 166.321 33.4679 165.922 34.7654V45.847H164.3V28.796H165.229C165.377 28.7812 165.526 28.8211 165.647 28.9083C165.696 28.9635 165.735 29.028 165.759 29.098C165.784 29.1681 165.794 29.2423 165.79 29.3164L165.933 32.9185C166.366 31.664 167.102 30.5357 168.075 29.6327C169.013 28.8376 170.213 28.4194 171.442 28.4593C171.92 28.4518 172.396 28.5067 172.86 28.6225C173.289 28.7271 173.704 28.8847 174.094 29.0919L173.88 30.2246L173.87 30.2654ZM190.888 36.5103C190.843 36.5559 190.788 36.5913 190.729 36.6142C190.669 36.6371 190.605 36.6469 190.541 36.6429H178.298V36.9695C178.284 38.1111 178.435 39.2488 178.747 40.347C179.002 41.236 179.432 42.065 180.012 42.7858C180.544 43.4296 181.223 43.9369 181.991 44.2654C182.815 44.6081 183.701 44.7783 184.593 44.7654C185.344 44.778 186.093 44.6818 186.817 44.4797C187.364 44.323 187.894 44.111 188.398 43.847C188.754 43.6617 189.095 43.4502 189.419 43.2144C189.569 43.0737 189.757 42.9783 189.959 42.9389C190.026 42.9337 190.093 42.946 190.154 42.9746C190.215 43.0032 190.267 43.0472 190.306 43.1021L190.755 43.6532C190.444 44.0282 190.075 44.3519 189.663 44.6123C189.191 44.9176 188.688 45.174 188.164 45.3776C187.586 45.5926 186.992 45.7632 186.388 45.8878C185.76 46.0096 185.121 46.0711 184.481 46.0715C183.389 46.0823 182.307 45.8742 181.297 45.4593C180.35 45.0625 179.506 44.4554 178.828 43.6838C178.099 42.8632 177.547 41.901 177.206 40.8572C176.812 39.6068 176.622 38.3008 176.645 36.9899C176.628 35.8395 176.804 34.6944 177.165 33.6021C177.483 32.6204 177.993 31.7116 178.665 30.9287C179.332 30.1766 180.153 29.5779 181.073 29.1736C182.099 28.741 183.204 28.5256 184.317 28.5409C185.226 28.532 186.127 28.7019 186.97 29.0409C187.774 29.3638 188.498 29.8583 189.092 30.4899C189.716 31.1628 190.192 31.9588 190.49 32.8266C190.846 33.8495 191.019 34.9273 191 36.0103C191.015 36.1878 190.976 36.3658 190.888 36.5205V36.5103ZM189.153 33.1429C188.942 32.4643 188.595 31.8358 188.133 31.296C187.68 30.7915 187.119 30.3971 186.49 30.1429C185.821 29.8649 185.103 29.726 184.379 29.7348C183.574 29.7166 182.773 29.8553 182.022 30.1429C181.346 30.4054 180.734 30.8089 180.226 31.3266C179.705 31.8618 179.287 32.4878 178.992 33.1736C178.667 33.9448 178.457 34.7596 178.369 35.5919H189.592C189.6 34.7572 189.472 33.9267 189.214 33.1327L189.153 33.1429Z" fill="#ED2729"/>
<path id="Path 3" d="M57.9907 42.1021C57.9903 42.5138 58.0522 42.9232 58.1743 43.3164C58.2784 43.6252 58.4491 43.9073 58.6743 44.1429C58.8795 44.3565 59.1307 44.5205 59.4088 44.6225C59.7032 44.7285 60.0143 44.7804 60.3271 44.7755C60.6748 44.7801 61.0206 44.7213 61.3473 44.6021C61.6168 44.4921 61.8762 44.3589 62.1227 44.2041C62.3061 44.0805 62.4832 43.9477 62.6532 43.8062C62.7357 43.7138 62.8473 43.6526 62.9695 43.6327C63.0259 43.6377 63.0802 43.656 63.1281 43.6862C63.176 43.7164 63.2161 43.7575 63.245 43.8062L63.6939 44.5204C63.231 45.0178 62.6676 45.4109 62.0411 45.6735C61.3977 45.9566 60.7035 46.1059 60.0006 46.1123C59.5118 46.141 59.0223 46.0708 58.5613 45.906C58.1003 45.7412 57.6772 45.4851 57.3173 45.1531C56.6233 44.3304 56.2823 43.2669 56.3685 42.1939V30.5409H53.9199C53.8089 30.545 53.7002 30.5087 53.6138 30.4388C53.5718 30.4024 53.5389 30.3567 53.5176 30.3053C53.4964 30.254 53.4874 30.1983 53.4914 30.1429V29.5102L56.3991 29.3062L56.8072 23.1837C56.8157 23.0837 56.859 22.9898 56.9296 22.9184C56.9665 22.877 57.0123 22.8444 57.0635 22.8232C57.1148 22.802 57.1702 22.7927 57.2255 22.796H57.9907V29.3266H63.3368V30.5409H57.9907V42.1123V42.1021ZM78.3956 45.8368C78.2495 45.8494 78.1039 45.8074 77.987 45.7188C77.8701 45.6302 77.7903 45.5013 77.763 45.3572L77.5284 43.1837C77.0867 43.6219 76.62 44.0342 76.1306 44.4184C75.6838 44.7758 75.2018 45.0869 74.6921 45.347C74.1764 45.6021 73.6317 45.794 73.0699 45.9184C72.4397 46.054 71.7964 46.1191 71.1519 46.1123C70.5776 46.1141 70.0065 46.0281 69.4582 45.8572C68.9279 45.6942 68.4354 45.4271 68.0095 45.0715C67.5714 44.6978 67.2227 44.2305 66.9893 43.7041C66.7134 43.078 66.581 42.3982 66.6016 41.7143C66.5958 40.988 66.8091 40.2767 67.2137 39.6735C67.7091 38.985 68.3683 38.4308 69.1318 38.0613C70.1978 37.5424 71.331 37.175 72.4986 36.9694C74.1454 36.6753 75.8147 36.5251 77.4876 36.5204V34.7347C77.5742 33.4395 77.2141 32.1537 76.4673 31.0919C76.0945 30.6522 75.6226 30.3073 75.0905 30.0856C74.5584 29.8638 73.9813 29.7716 73.4066 29.8164C72.7112 29.809 72.0201 29.9266 71.3661 30.1633C70.8488 30.3573 70.3558 30.6107 69.8969 30.9184C69.5386 31.1444 69.1976 31.3968 68.8767 31.6735C68.7135 31.8586 68.4888 31.9782 68.2442 32.0102C68.1385 32.0147 68.0339 31.9881 67.9432 31.9337C67.8526 31.8792 67.7798 31.7994 67.734 31.7041L67.4382 31.2143C68.2425 30.3701 69.193 29.6787 70.2438 29.1735C71.2899 28.6954 72.4301 28.4582 73.58 28.4796C74.3971 28.465 75.2089 28.6142 75.9674 28.9184C76.6286 29.1925 77.2133 29.6233 77.6712 30.1735C78.1415 30.7539 78.4886 31.4239 78.6915 32.1429C78.937 32.9849 79.0607 33.8577 79.0587 34.7347V45.847L78.3956 45.8368ZM77.4876 37.6123C76.0867 37.643 74.6894 37.7657 73.3046 37.9796C72.3127 38.1341 71.3432 38.4082 70.4173 38.796C69.7669 39.0595 69.192 39.4802 68.7441 40.0204C68.3911 40.4875 68.2011 41.0575 68.2033 41.6429C68.1904 42.151 68.2878 42.6558 68.489 43.1225C68.6586 43.5136 68.913 43.8621 69.2338 44.1429C69.5262 44.4129 69.8746 44.615 70.254 44.7347C70.67 44.8653 71.1036 44.9307 71.5395 44.9286C72.1679 44.9365 72.7948 44.868 73.4066 44.7245C74.4641 44.4468 75.4422 43.9262 76.2633 43.2041C76.6714 42.847 77.0795 42.4694 77.4774 42.0511V37.6123H77.4876ZM89.0163 36.2551C88.9154 36.3513 88.8022 36.4336 88.6797 36.5C88.8489 36.584 89.0039 36.6942 89.1388 36.8266L89.5265 37.2347L97.4129 45.8368H95.9948C95.847 45.8376 95.7008 45.8062 95.5663 45.7449C95.4233 45.6661 95.2955 45.5624 95.1888 45.4388L88.0471 37.7653C87.899 37.5928 87.7188 37.4507 87.5166 37.347C87.275 37.2594 87.0182 37.2212 86.7616 37.2347H85.9964V45.8368H84.3742V20.9082H85.9964V36.1123H86.782C86.9342 36.1093 87.0853 36.0852 87.2309 36.0409C87.4039 35.9823 87.5611 35.8845 87.69 35.7551L94.5257 29.2245C94.6383 29.1031 94.7691 28.9998 94.9134 28.9184C95.0638 28.8279 95.2381 28.7852 95.4133 28.796H96.8722L89.3632 35.9388L89.0469 36.2551H89.0163ZM112.972 36.5C112.929 36.5492 112.875 36.5877 112.815 36.6125C112.755 36.6373 112.69 36.6477 112.625 36.6429H100.382V36.9694C100.364 38.1072 100.512 39.2415 100.821 40.3368C101.074 41.2297 101.504 42.0626 102.086 42.7858C102.636 43.4366 103.336 43.9443 104.126 44.2653C104.948 44.6042 105.829 44.7743 106.718 44.7653C107.469 44.778 108.218 44.6817 108.942 44.4796C109.49 44.3265 110.02 44.1144 110.523 43.847C110.876 43.6579 111.217 43.4466 111.543 43.2143C111.697 43.0701 111.888 42.9712 112.094 42.9286C112.16 42.9273 112.226 42.9424 112.285 42.9727C112.343 43.003 112.394 43.0475 112.431 43.1021L112.88 43.6531C112.565 44.0251 112.198 44.3484 111.788 44.6123C111.319 44.9203 110.815 45.1736 110.288 45.3674C109.714 45.5917 109.119 45.7624 108.513 45.8776C107.886 46.0082 107.246 46.0732 106.605 46.0715C105.514 46.0823 104.432 45.8741 103.422 45.4592C102.479 45.0561 101.636 44.4499 100.953 43.6837C100.213 42.8638 99.6477 41.9022 99.2902 40.8572C98.8953 39.6104 98.7058 38.3077 98.7291 37C98.7173 35.85 98.893 34.7058 99.2494 33.6123C99.5649 32.6295 100.075 31.7203 100.749 30.9388C101.413 30.1836 102.235 29.5843 103.157 29.1837C104.182 28.7463 105.287 28.5307 106.401 28.5511C107.309 28.5394 108.21 28.7058 109.054 29.0409C109.848 29.3574 110.565 29.8411 111.156 30.4592C111.776 31.1348 112.251 31.93 112.553 32.796C112.908 33.8226 113.077 34.904 113.053 35.9898C113.071 36.1663 113.035 36.344 112.951 36.5H112.972ZM111.237 33.1327C111.026 32.4572 110.679 31.8321 110.217 31.296C109.764 30.7939 109.207 30.3969 108.585 30.1327C107.911 29.8594 107.19 29.7207 106.463 29.7245C105.662 29.7165 104.867 29.8548 104.116 30.1327C103.438 30.3974 102.823 30.8006 102.31 31.3164C101.792 31.8554 101.377 32.4849 101.086 33.1735C100.762 33.9416 100.552 34.7529 100.463 35.5817H111.686C111.698 34.7466 111.571 33.9155 111.309 33.1225L111.237 33.1327ZM119.613 35.2551C120.094 35.5196 120.6 35.735 121.123 35.898L122.858 36.449C123.46 36.6327 124.031 36.8368 124.592 37.0613C125.133 37.273 125.644 37.5543 126.112 37.898C126.536 38.2246 126.884 38.6388 127.133 39.1123C127.421 39.6476 127.561 40.2497 127.541 40.8572C127.55 41.5576 127.414 42.2523 127.143 42.898C126.879 43.5295 126.482 44.0968 125.98 44.5613C125.434 45.0526 124.796 45.4306 124.103 45.6735C123.294 45.9616 122.44 46.0999 121.583 46.0817C120.534 46.1072 119.491 45.9125 118.522 45.5102C117.695 45.1416 116.931 44.6458 116.257 44.0409L116.655 43.4592C116.696 43.3754 116.759 43.3047 116.838 43.2551C116.926 43.2063 117.024 43.1817 117.124 43.1837C117.332 43.2166 117.524 43.3128 117.675 43.4592C117.94 43.6804 118.223 43.8785 118.522 44.0511C118.932 44.2935 119.366 44.4918 119.818 44.6429C120.441 44.8371 121.092 44.9301 121.746 44.9184C122.39 44.9274 123.032 44.8273 123.643 44.6225C124.147 44.4393 124.611 44.1623 125.011 43.8062C125.368 43.464 125.65 43.0503 125.837 42.5919C126.028 42.1294 126.126 41.6333 126.123 41.1327C126.143 40.625 126 40.1242 125.715 39.7041C125.422 39.3148 125.054 38.9885 124.633 38.7449C124.156 38.4681 123.65 38.2456 123.123 38.0817L121.358 37.5307C120.756 37.347 120.175 37.1429 119.613 36.9286C119.076 36.7262 118.568 36.4515 118.104 36.1123C117.663 35.7863 117.295 35.3729 117.022 34.898C116.735 34.3549 116.595 33.7466 116.614 33.1327C116.612 32.5251 116.748 31.925 117.012 31.3776C117.277 30.8135 117.66 30.3125 118.134 29.9082C118.653 29.4598 119.252 29.1136 119.899 28.8878C120.653 28.6255 121.447 28.4977 122.246 28.5102C123.187 28.4906 124.124 28.6427 125.011 28.9592C125.83 29.276 126.582 29.7471 127.224 30.347L126.867 30.9082C126.835 30.9815 126.783 31.0438 126.715 31.0874C126.648 31.1309 126.57 31.1538 126.49 31.1531C126.311 31.1265 126.142 31.0525 126 30.9388C125.749 30.762 125.487 30.6018 125.215 30.4592C124.833 30.2578 124.434 30.0938 124.021 29.9694C123.456 29.8173 122.872 29.7452 122.287 29.7551C121.714 29.7537 121.145 29.8468 120.603 30.0307C120.127 30.1807 119.684 30.4196 119.297 30.7347C118.952 31.0144 118.667 31.3616 118.461 31.7551C118.266 32.1413 118.165 32.5676 118.165 33C118.142 33.4763 118.286 33.9457 118.573 34.3266C118.85 34.6932 119.197 35.0018 119.593 35.2347L119.613 35.2551Z" fill="#8C8281"/>
<g id="Group 3">
<path id="Path 4" fill-rule="evenodd" clip-rule="evenodd" d="M31.0256 46.9796C31.2602 45.4286 31.7091 42.5817 32.2295 40.2041C32.518 38.9696 32.8895 37.7559 33.3415 36.5715C34.5781 36.5593 35.7592 36.0563 36.625 35.1732C37.4908 34.29 37.9703 33.0991 37.9581 31.8623C37.946 30.6255 37.4431 29.4442 36.5601 28.5783C35.6771 27.7124 34.4863 27.2328 33.2497 27.2449H33.0457V27.3674C33.0463 28.7147 32.6627 30.0342 31.9399 31.1711C31.217 32.308 30.1849 33.215 28.9647 33.7858C29.2475 34.4254 29.6687 34.9943 30.198 35.4513C30.7273 35.9083 31.3515 36.2421 32.0254 36.4286C31.7193 37.8572 31.3214 39.796 31.0868 41.2858C30.6787 43.9184 30.4134 46.2551 30.3114 47.1633C29.1409 47.489 27.9471 47.7244 26.7405 47.8674C26.0756 44.9847 25.612 42.0593 25.353 39.1123C25.2477 37.2144 25.2818 35.3113 25.455 33.4184H25.9346C27.4966 33.4266 29.0054 32.8507 30.1649 31.8038C31.3244 30.757 32.051 29.3145 32.2022 27.7595C32.3534 26.2045 31.9182 24.6492 30.9821 23.3985C30.0459 22.1478 28.6763 21.292 27.142 20.999C25.6076 20.7061 24.0191 20.997 22.6882 21.8148C21.3572 22.6326 20.3797 23.9183 19.9475 25.4197C19.5153 26.921 19.6595 28.5297 20.3519 29.9302C21.0443 31.3306 22.2348 32.4219 23.69 32.9898C23.9145 35.1939 24.292 38.5715 24.5572 40.4184C25.0571 43.7551 25.7917 46.7756 26.0774 47.8878C25.3836 47.949 24.6797 47.9796 23.9553 47.9796C17.9035 47.9449 12.0885 45.6234 7.67619 41.4807C3.26389 37.3379 0.580438 31.6801 0.163863 25.6415C-0.252713 19.603 1.62838 13.6302 5.42999 8.92062C9.2316 4.21101 14.6727 1.11277 20.6624 0.247072C26.6521 -0.618628 32.7475 0.812209 37.7267 4.25271C42.7059 7.69321 46.2007 12.889 47.5104 18.7985C48.8202 24.7079 47.848 30.8941 44.7889 36.1167C41.7297 41.3393 36.8098 45.2123 31.0154 46.9592L31.0256 46.9796Z" fill="#ED2729"/>
</g>
</g>
</svg>
